<svg xmlns="http://www.w3.org/2000/svg" width="289.099" height="72.666" viewBox="0 0 289.099 72.666"><path d="M23.54,16.414a13.68,13.68,0,0,0-4.434,10.024c0,4.334,1.542,7.086,6.315,11.227,1.928,1.689,2.552,2.7,2.552,3.948A3.355,3.355,0,0,1,24.411,44.7c-2.552,0-5.3-1.2-8.05-3.616L14.58,52.016A21.687,21.687,0,0,0,25.614,55c4,0,7.279-1.056,9.777-3.37a14.513,14.513,0,0,0,4.48-10.6c0-4.58-1.735-7.757-6.315-11.705-1.827-1.635-2.506-2.6-2.506-3.663a2.722,2.722,0,0,1,2.938-2.406,10.343,10.343,0,0,1,6.362,2.653l1.735-10.263a19.83,19.83,0,0,0-9.3-2.213,14.05,14.05,0,0,0-9.253,2.984" transform="translate(-14.58 -12.821)" fill="#fff"/><path d="M119.571,15.633c-2.267-.964-4-1.2-8.721-1.2H99.815L93.5,54.473h11.613l2.02-13.055c.771.046,1.588.046,1.735.046,5.59,0,8.289-.578,10.888-2.36,3.516-2.36,5.737-7.133,5.737-12.476.046-5.351-2.12-9.3-5.93-10.988h0Zm-7.518,16.525c-.771.285-1.2.339-3.47.339l1.5-9.492c3.47,0,4.58.964,4.58,3.855.046,2.506-1.056,4.627-2.6,5.3h0Z" transform="translate(-32.645 -13.05)" fill="#fff"/><path d="M195.362,16.358c-2.02-1.442-4.434-1.928-10.07-1.928H173.725L167.41,54.473h11.613l2.267-14.651,2.938,14.651h11.705l-4.58-16.093c5.012-1.5,8.05-6.215,8.05-12.577,0-4.241-1.5-7.564-4.048-9.446h0Zm-9.538,15.322c-.771.532-1.442.725-3.323.771l1.542-9.878c2.984.046,4,.964,4,3.424,0,2.313-.964,4.719-2.213,5.683h0Z" transform="translate(-49.563 -13.05)" fill="#fff"/><path d="M73.026,14.43l-4,25.3c-.578,3.709-1.249,4.866-3.038,4.866a2.007,2.007,0,0,1-2.167-2.267,10.633,10.633,0,0,1,.239-2.121L68.107,14.43H56.494L52.877,37.894c-.725,4.819-.817,5.637-.817,7.279,0,5.876,5.351,10.071,12.862,10.071,5.1,0,9.492-1.735,12.145-4.866,2.074-2.46,2.506-3.755,3.855-12.669l3.709-23.272H73.018" transform="translate(-23.159 -13.05)" fill="#fff"/><path d="M159.309,24.015l1.5-9.585H140.185L133.87,54.473h20.673l1.589-10.217h-9.06l.817-5.59h7.857l1.5-9.253h-7.858l.817-5.4h9.107" transform="translate(-41.886 -13.05)" fill="#fff"/><path d="M212.077,33.969c-1.881,11.952,5.876,21.3,17.681,21.3a24.175,24.175,0,0,0,12-3.37l1.157-7.225a18.569,18.569,0,0,1-12.191,4.966c-8.289,0-13.633-6.894-12.237-15.707s8.914-15.707,17.2-15.707a13.368,13.368,0,0,1,10.6,4.966l1.157-7.179a18.757,18.757,0,0,0-10.934-3.37c-11.852.046-22.547,9.392-24.428,21.344" transform="translate(-59.724 -12.64)" fill="#fff"/><path d="M285.191,38.38c-.625,4-1.542,6.362-3.131,8.243a10.813,10.813,0,0,1-8.05,3.47c-3.139,0-5.4-1.056-6.747-3.084-1.249-1.928-1.5-4.388-.864-8.629l3.755-23.95h-5.783l-3.755,23.95c-.964,6.169-.725,9.014,1.157,11.9,2.359,3.616,6.068,5.4,11.32,5.4a17.017,17.017,0,0,0,12.962-5.4c2.791-2.892,3.948-5.683,4.912-11.9l3.755-23.95h-5.783l-3.755,23.95" transform="translate(-70.772 -13.05)" fill="#fff"/><path d="M334.445,14.43H309.778l-.818,5.2h9.492l-5.49,34.792h5.783l5.49-34.792h9.446l.771-5.2" transform="translate(-81.965 -13.05)" fill="#fff"/><path d="M356.361,30.226c-4.241-1.928-4.966-2.267-5.876-3.177a3.772,3.772,0,0,1-1.3-3.809c.478-2.984,3.323-5.1,6.793-5.1,2.745,0,4.526,1.3,5.976,4.241l5.058-3.709a11.084,11.084,0,0,0-10.117-5.737c-6.94,0-12.816,4.719-13.826,11.034a7.711,7.711,0,0,0,1.3,5.93c1.542,2.074,2.845,2.938,9.06,5.737,5.737,2.6,7.179,4.287,6.647,7.611-.625,3.9-4.333,6.747-8.721,6.747s-6.554-2.313-7.225-7.279l-6.361,1.542c1.11,7.032,5.59,10.934,12.476,10.934,8.289,0,14.743-5.1,15.946-12.669a9.259,9.259,0,0,0-1.542-7.032c-1.5-1.827-3.131-2.938-8.289-5.251" transform="translate(-88.56 -12.706)" fill="#fff"/><path d="M385.777,16.293c0-.864-.532-1.3-1.588-1.3H382.5v4.48h.671V17.5h.771l1.2,1.974h.771L384.667,17.5a1.116,1.116,0,0,0,1.11-1.2Zm-2.6.725v-1.4h.918c.478,0,.964.093.964.671,0,.671-.532.725-1.11.725Z" transform="translate(-98.799 -13.178)" fill="#fff"/><path d="M383.268,12.87a3.9,3.9,0,1,0,0,7.8,3.825,3.825,0,0,0,3.9-3.9,3.886,3.886,0,0,0-3.9-3.9Zm0,7.179a3.167,3.167,0,0,1-3.177-3.277,3.155,3.155,0,1,1,6.307,0,3.187,3.187,0,0,1-3.131,3.277Z" transform="translate(-98.071 -12.693)" fill="#fff"/><path d="M12.57,3.664H7.775L5.585-2.183q-.032-.149-.112-.393t-.2-.585l.032,1.084V3.664H.9V-12.751h4.54a7.141,7.141,0,0,1,4.487,1.18,5.177,5.177,0,0,1,1.892,4.3A4.127,4.127,0,0,1,9.274-3.161ZM5.33-5.15h.3A1.624,1.624,0,0,0,6.9-5.734a2.181,2.181,0,0,0,.51-1.488q0-1.839-1.924-1.839H5.33Zm8.707,8.814V-12.751h8.24v3.859H18.471V-6.5h3.413v3.71H18.471V-.28h3.806V3.664Zm21.954,0H31.409L31.08,1.58H28.092l-.361,2.084H23.149l3.944-16.415h5.422Zm-5.433-5.6-.287-1.914a1.86,1.86,0,0,1-.043-.287q-.021-.234-.223-1.85-.021-.181-.053-.494t-.085-.792L29.73-8.828q-.021.223-.058.5t-.08.606q-.074.659-.106.914t-.043.308l-.308,1.988-.447,2.573Zm14.48,5.6H37.278V-12.751h4.433V-.28h3.328Zm7.517-.4V-1.9A3.607,3.607,0,0,0,55.384-.11a1.407,1.407,0,0,0,.936-.3.951.951,0,0,0,.361-.76,1.715,1.715,0,0,0-.787-1.286l-.723-.563A9.866,9.866,0,0,1,53.938-4.1a5.561,5.561,0,0,1-.829-1.106,4.675,4.675,0,0,1-.468-1.175,5.332,5.332,0,0,1-.149-1.276,6.154,6.154,0,0,1,.532-2.4,6.143,6.143,0,0,1,.617-1.068,4.519,4.519,0,0,1,.808-.856,4.53,4.53,0,0,1,3.03-1.063,6.834,6.834,0,0,1,3.189.84v5.018a4.688,4.688,0,0,0-1.233-1.324A2.372,2.372,0,0,0,58.073-9a1.205,1.205,0,0,0-.84.3.875.875,0,0,0-.34.691A1.741,1.741,0,0,0,57.8-6.7l.7.521a6.86,6.86,0,0,1,2.009,2.073,4.87,4.87,0,0,1,.617,2.488,5.607,5.607,0,0,1-1.478,4A4.913,4.913,0,0,1,55.9,3.951,9.31,9.31,0,0,1,52.556,3.26Zm27.2.4H75.116l-.33-7.485-.138-2.987q-.074.861-.17,1.643T74.244-3.65L72.851,3.664H69.237L68.046-3.661q-.106-.638-.287-2.19-.021-.234-.1-.957l-.106,3.03-.393,7.442h-4.72l1.914-16.415h5.518L70.8-7.223q.117.68.207,1.478t.165,1.733a26.484,26.484,0,0,1,.383-2.8l1.127-5.943h5.475Zm13.789,0H88.958l-.33-2.084H85.641L85.28,3.664H80.7l3.944-16.415h5.422Zm-5.433-5.6-.287-1.914a1.859,1.859,0,0,1-.043-.287q-.021-.234-.223-1.85-.021-.181-.053-.494t-.085-.792l-.138-1.552q-.021.223-.058.5t-.08.606q-.074.659-.106.914t-.043.308l-.308,1.988-.447,2.573Zm18.393,5.6h-4.795l-2.19-5.847q-.032-.149-.112-.393t-.2-.585l.032,1.084V3.664H94.827V-12.751h4.54a7.141,7.141,0,0,1,4.487,1.18,5.177,5.177,0,0,1,1.892,4.3A4.127,4.127,0,0,1,103.2-3.161ZM99.26-5.15h.3a1.624,1.624,0,0,0,1.276-.585,2.181,2.181,0,0,0,.51-1.488q0-1.839-1.924-1.839H99.26Zm14.587,8.814h-4.433V-8.817h-2.445v-3.934h9.42v3.934h-2.541Zm21.221,0h-4.433v-6.6h-2.116v6.6h-4.433V-12.751h4.433v5.8h2.116v-5.8h4.433Zm14.119,0H144.6l-.33-2.084h-2.987l-.362,2.084h-4.582l3.944-16.415h5.422Zm-5.433-5.6-.287-1.914a1.855,1.855,0,0,1-.043-.287q-.021-.234-.223-1.85-.021-.181-.053-.494t-.085-.792l-.138-1.552q-.021.223-.058.5t-.08.606q-.074.659-.106.914t-.043.308l-.308,1.988-.447,2.573Zm11.153,5.6h-4.433V-12.751h4.433Zm13.97,0h-4.795l-2.19-5.847q-.032-.149-.112-.393t-.2-.585l.032,1.084V3.664H157.2V-12.751h4.54a7.141,7.141,0,0,1,4.487,1.18,5.176,5.176,0,0,1,1.892,4.3,4.127,4.127,0,0,1-2.541,4.114Zm-7.24-8.814h.3a1.624,1.624,0,0,0,1.276-.585,2.181,2.181,0,0,0,.51-1.488q0-1.839-1.924-1.839h-.159Z" transform="translate(59.714 68.715)" fill="#fff"/></svg>